<svg width="605" height="673" viewBox="0 0 605 673" fill="none" xmlns="http://www.w3.org/2000/svg">
<rect x="-40" y="40" width="525" height="593" rx="50" transform="matrix(1 0 0 -1 80 673)" fill="white" stroke="white" stroke-width="80"/>
<path d="M91.8419 80.0603C92.5814 80.053 93.321 80.0457 94.0829 80.0382C96.5751 80.0199 99.0658 80.0374 101.558 80.0546C103.357 80.0488 105.156 80.0409 106.955 80.0309C111.91 80.01 116.864 80.0204 121.818 80.0359C127.157 80.0471 132.496 80.0297 137.835 80.016C148.298 79.9937 158.761 79.9985 169.224 80.013C177.725 80.0243 186.226 80.0258 194.727 80.0204C195.935 80.0196 197.144 80.0189 198.388 80.0181C200.843 80.0165 203.297 80.0149 205.752 80.0132C228.786 79.9989 251.82 80.0154 274.854 80.0422C294.633 80.0646 314.412 80.0607 334.19 80.0376C357.14 80.0109 380.09 80.0003 403.04 80.0157C405.485 80.0173 407.931 80.0188 410.377 80.0204C411.58 80.0212 412.783 80.0219 414.023 80.0227C422.517 80.0271 431.011 80.0197 439.506 80.008C449.852 79.994 460.199 79.9977 470.546 80.0244C475.828 80.0376 481.11 80.0426 486.393 80.0262C491.224 80.0113 496.055 80.0194 500.886 80.046C502.638 80.0517 504.39 80.0487 506.143 80.0367C508.516 80.0216 510.888 80.0369 513.261 80.0603C513.949 80.0486 514.637 80.0369 515.346 80.0248C518.735 80.0918 520.345 80.5182 522.976 82.7012C525.007 86.5525 525.105 89.8811 525.055 94.1307C525.061 94.9825 525.067 95.8343 525.073 96.712C525.087 99.5799 525.073 102.447 525.06 105.315C525.064 107.386 525.071 109.458 525.079 111.529C525.095 117.232 525.087 122.934 525.075 128.637C525.066 134.783 525.079 140.929 525.09 147.075C525.107 158.422 525.106 169.77 525.095 181.117C525.085 191.6 525.082 202.082 525.087 212.565C525.087 213.259 525.088 213.954 525.088 214.67C525.089 217.491 525.09 220.311 525.092 223.132C525.104 249.6 525.093 276.069 525.071 302.537C525.052 326.061 525.054 349.585 525.073 373.109C525.095 399.529 525.103 425.948 525.091 452.368C525.089 455.183 525.088 457.999 525.087 460.814C525.087 461.508 525.086 462.201 525.086 462.915C525.081 473.392 525.087 483.869 525.097 494.345C525.108 506.256 525.105 518.166 525.084 530.077C525.073 536.157 525.069 542.238 525.082 548.318C525.094 553.88 525.088 559.441 525.066 565.002C525.062 567.019 525.064 569.035 525.074 571.052C525.086 573.785 525.074 576.516 525.055 579.248C525.064 580.039 525.074 580.83 525.083 581.645C525.035 585.165 524.626 587.548 522.976 590.678C519.79 593.322 517.229 593.386 513.261 593.319C512.522 593.326 511.782 593.333 511.02 593.341C508.528 593.359 506.038 593.342 503.545 593.324C501.746 593.33 499.947 593.338 498.148 593.348C493.194 593.369 488.24 593.359 483.285 593.343C477.946 593.332 472.608 593.349 467.269 593.363C456.806 593.385 446.343 593.38 435.88 593.366C427.379 593.355 418.878 593.353 410.377 593.359C408.564 593.36 408.564 593.36 406.715 593.361C404.26 593.362 401.806 593.364 399.351 593.366C376.317 593.38 353.283 593.364 330.249 593.337C310.47 593.314 290.692 593.318 270.913 593.341C247.963 593.368 225.014 593.379 202.064 593.363C199.618 593.362 197.172 593.36 194.727 593.359C193.523 593.358 192.32 593.357 191.08 593.356C182.586 593.352 174.092 593.359 165.598 593.371C155.251 593.385 144.904 593.381 134.558 593.354C129.275 593.341 123.993 593.336 118.71 593.353C113.879 593.368 109.049 593.36 104.218 593.333C102.465 593.327 100.713 593.33 98.9608 593.342C96.5871 593.357 94.2155 593.342 91.8419 593.319C90.8101 593.336 90.8101 593.336 89.7575 593.354C86.3686 593.287 84.7581 592.861 82.1275 590.678C80.0966 586.827 79.998 583.498 80.0483 579.248C80.0425 578.396 80.0367 577.545 80.0307 576.667C80.016 573.799 80.03 570.932 80.0437 568.064C80.0391 565.993 80.0328 563.921 80.0248 561.85C80.0081 556.147 80.0164 550.445 80.0288 544.742C80.0378 538.596 80.0239 532.45 80.0129 526.304C79.9961 514.957 79.9976 503.609 80.0085 492.262C80.0186 481.779 80.0212 471.297 80.0164 460.814C80.0161 460.12 80.0158 459.425 80.0155 458.709C80.0142 455.888 80.013 453.068 80.0116 450.247C79.9994 423.778 80.0105 397.31 80.032 370.842C80.051 347.318 80.0493 323.794 80.0302 300.27C80.0088 273.85 80.0003 247.431 80.0126 221.011C80.0139 218.196 80.0152 215.38 80.0164 212.565C80.0167 211.871 80.017 211.178 80.0174 210.464C80.0219 199.987 80.0166 189.51 80.0065 179.034C79.9951 167.123 79.9983 155.213 80.0196 143.302C80.0302 137.222 80.0342 131.141 80.021 125.061C80.0091 119.499 80.0156 113.938 80.0369 108.377C80.0414 106.36 80.0391 104.344 80.0294 102.327C80.0173 99.5944 80.0297 96.8631 80.0483 94.1307C80.0389 93.3398 80.0296 92.549 80.0199 91.7343C80.0683 88.2136 80.4771 85.8309 82.1275 82.7012C85.3136 80.0572 87.8744 79.9927 91.8419 80.0603ZM98.5517 98.6895C98.5517 103.969 98.5517 109.249 98.5517 114.689C233.192 114.689 367.832 114.689 506.552 114.689C506.552 109.409 506.552 104.129 506.552 98.6895C371.912 98.6895 237.272 98.6895 98.5517 98.6895ZM98.5517 132.689C98.5517 267.329 98.5517 401.969 98.5517 540.689C162.902 540.689 227.252 540.689 293.552 540.689C293.552 406.049 293.552 271.409 293.552 132.689C229.202 132.689 164.852 132.689 98.5517 132.689ZM311.552 132.689C311.552 137.969 311.552 143.249 311.552 148.689C318.828 148.826 326.104 148.935 333.381 149C336.761 149.032 340.14 149.074 343.52 149.142C347.415 149.215 351.308 149.249 355.204 149.275C357.005 149.322 357.005 149.322 358.841 149.369C365.84 149.372 370.141 148.539 375.668 144.122C380.799 140.221 386.937 140.347 393.087 141.143C397.348 142.088 402.004 143.701 404.757 147.239C407.429 149.399 409.553 149.049 412.951 149.03C413.917 149.031 413.917 149.031 414.903 149.031C417.03 149.029 419.156 149.006 421.282 148.982C422.758 148.977 424.233 148.973 425.708 148.97C429.59 148.958 433.471 148.929 437.353 148.895C441.314 148.865 445.276 148.851 449.237 148.836C457.009 148.804 464.78 148.751 472.552 148.689C472.552 143.409 472.552 138.129 472.552 132.689C419.422 132.689 366.292 132.689 311.552 132.689ZM490.552 132.689C490.552 267.329 490.552 401.969 490.552 540.689C495.832 540.689 501.112 540.689 506.552 540.689C506.552 406.049 506.552 271.409 506.552 132.689C501.272 132.689 495.992 132.689 490.552 132.689ZM311.552 166.689C311.552 245.229 311.552 323.769 311.552 404.689C364.682 404.689 417.812 404.689 472.552 404.689C472.552 326.149 472.552 247.609 472.552 166.689C453.082 166.689 433.612 166.689 413.552 166.689C413.222 170.649 412.892 174.609 412.552 178.689C410.661 181.838 410.661 181.838 408.302 184.064C407.493 184.864 406.685 185.663 405.852 186.486C405.093 187.213 404.334 187.94 403.552 188.689C402.511 189.881 401.485 191.086 400.489 192.314C399.85 193.098 399.21 193.882 398.552 194.689C405.109 198.062 411.727 201.121 418.54 203.939C420.399 204.72 422.258 205.501 424.116 206.283C427.002 207.493 429.888 208.7 432.779 209.897C435.6 211.066 438.414 212.252 441.227 213.439C442.089 213.792 442.951 214.144 443.838 214.507C448.624 216.543 452.326 218.437 455.552 222.689C456.135 225.305 456.135 225.305 456.075 228.068C456.058 229.574 456.058 229.574 456.04 231.109C456.003 232.146 455.965 233.184 455.927 234.252C455.912 235.293 455.898 236.334 455.884 237.406C455.704 246.707 455.704 246.707 454.552 249.689C451.638 250.661 449.771 250.819 446.738 250.83C445.251 250.838 445.251 250.838 443.734 250.847C442.648 250.848 441.562 250.849 440.443 250.851C438.725 250.858 438.725 250.858 436.973 250.866C433.178 250.88 429.382 250.887 425.587 250.893C422.955 250.898 420.323 250.904 417.692 250.91C412.877 250.919 408.062 250.925 403.248 250.928C396.161 250.933 389.074 250.95 381.988 250.979C375.849 251.004 369.711 251.011 363.572 251.013C360.96 251.016 358.348 251.024 355.736 251.037C352.087 251.054 348.439 251.052 344.79 251.046C343.706 251.055 342.622 251.064 341.504 251.074C340.51 251.068 339.516 251.063 338.492 251.057C337.63 251.058 336.767 251.06 335.878 251.061C333.006 250.602 331.649 249.681 329.552 247.689C328.031 243.126 328.244 238.595 328.177 233.814C328.139 232.821 328.102 231.827 328.063 230.803C328.052 229.84 328.04 228.877 328.028 227.885C328.008 227.008 327.989 226.132 327.968 225.229C328.844 221.418 330.509 220.136 333.552 217.689C336.789 215.844 340.139 214.294 343.524 212.74C345.496 211.801 347.466 210.86 349.436 209.918C352.526 208.453 355.62 206.999 358.726 205.569C361.736 204.176 364.724 202.743 367.712 201.303C368.638 200.889 369.564 200.475 370.518 200.048C375.472 197.621 377.94 195.82 379.951 190.58C380.314 189.331 380.314 189.331 380.685 188.057C382.22 183.864 385.525 181.277 388.802 178.377C390.089 177.226 391.365 176.064 392.63 174.889C393.191 174.392 393.752 173.895 394.33 173.384C396.039 171.362 396.039 171.362 395.552 166.689C390.272 166.689 384.992 166.689 379.552 166.689C379.552 169.329 379.552 171.969 379.552 174.689C373.612 174.689 367.672 174.689 361.552 174.689C361.552 172.049 361.552 169.409 361.552 166.689C345.052 166.689 328.552 166.689 311.552 166.689ZM382.442 212.478C381.246 213.064 381.246 213.064 380.026 213.662C379.174 214.09 378.323 214.518 377.446 214.959C376.566 215.396 375.687 215.833 374.78 216.283C372.923 217.208 371.068 218.137 369.215 219.07C366.371 220.499 363.518 221.908 360.663 223.316C358.861 224.217 357.06 225.119 355.259 226.022C354.401 226.444 353.544 226.865 352.661 227.3C351.873 227.7 351.085 228.101 350.274 228.513C349.577 228.862 348.881 229.21 348.164 229.569C346.222 230.68 346.222 230.68 345.552 233.689C376.242 233.689 406.932 233.689 438.552 233.689C437.889 230.614 437.889 230.614 435.674 229.569C434.853 229.221 434.033 228.872 433.187 228.513C432.259 228.113 431.331 227.713 430.375 227.3C429.365 226.878 428.354 226.456 427.313 226.022C426.281 225.582 425.249 225.142 424.185 224.689C421.997 223.76 419.807 222.837 417.615 221.918C414.258 220.51 410.909 219.083 407.561 217.652C405.438 216.753 403.313 215.856 401.188 214.959C400.184 214.531 399.18 214.103 398.145 213.662C397.208 213.271 396.27 212.88 395.304 212.478C394.481 212.132 393.658 211.785 392.81 211.429C388.802 210.117 386.071 210.679 382.442 212.478ZM311.552 422.689C311.552 427.969 311.552 433.249 311.552 438.689C364.682 438.689 417.812 438.689 472.552 438.689C472.552 433.409 472.552 428.129 472.552 422.689C419.422 422.689 366.292 422.689 311.552 422.689ZM311.552 456.689C311.552 484.409 311.552 512.129 311.552 540.689C320.132 540.689 328.712 540.689 337.552 540.689C337.469 538.565 337.387 536.441 337.302 534.252C337.282 527.765 338.312 523.259 341.552 517.689C341.882 517.029 342.212 516.369 342.552 515.689C341.79 514.245 340.966 512.833 340.114 511.439C336.371 504.183 336.113 496.598 338.403 488.783C341.026 482.861 344.761 478.655 350.552 475.689C355.553 474.018 360.111 473.392 365.348 473.399C366.466 473.389 366.466 473.389 367.608 473.379C370.054 473.36 372.5 473.356 374.946 473.354C376.661 473.347 378.376 473.34 380.091 473.333C383.679 473.321 387.267 473.318 390.856 473.319C395.432 473.319 400.007 473.292 404.583 473.257C408.124 473.235 411.664 473.231 415.205 473.232C416.891 473.23 418.577 473.221 420.263 473.205C430.308 473.121 439.694 473.07 447.954 479.584C453.653 486.705 456.127 492.448 455.919 501.678C455.369 506.192 453.652 509.716 451.552 513.689C451.222 514.679 450.892 515.669 450.552 516.689C451.557 518.77 451.557 518.77 452.989 521.002C456.499 527.547 455.91 533.388 455.552 540.689C461.162 540.689 466.772 540.689 472.552 540.689C472.552 512.969 472.552 485.249 472.552 456.689C419.422 456.689 366.292 456.689 311.552 456.689ZM356.552 492.689C354.206 496.208 353.972 497.547 354.552 501.689C357.183 505.06 358.677 506.525 362.929 507.324C364.217 507.328 365.505 507.332 366.833 507.336C367.905 507.35 367.905 507.35 368.998 507.363C371.35 507.385 373.7 507.37 376.052 507.354C377.692 507.357 379.332 507.362 380.972 507.368C384.405 507.375 387.837 507.365 391.27 507.341C395.666 507.313 400.06 507.329 404.455 507.359C407.84 507.377 411.225 507.371 414.611 507.359C416.231 507.355 417.851 507.359 419.471 507.371C421.739 507.384 424.003 507.364 426.27 507.336C427.559 507.332 428.847 507.329 430.175 507.324C434.434 506.524 435.945 505.095 438.552 501.689C438.883 498.089 438.883 498.089 437.552 494.689C434.806 491.868 433.168 490.782 429.244 490.195C427.988 490.198 426.732 490.201 425.438 490.204C424.393 490.198 424.393 490.198 423.327 490.192C421.036 490.185 418.745 490.206 416.454 490.229C414.856 490.231 413.259 490.232 411.661 490.231C408.318 490.234 404.976 490.251 401.632 490.278C397.35 490.312 393.067 490.319 388.784 490.318C385.487 490.319 382.19 490.329 378.894 490.344C377.314 490.35 375.735 490.354 374.156 490.356C371.949 490.36 369.743 490.378 367.536 490.399C366.281 490.407 365.026 490.414 363.732 490.422C360.696 490.677 359.031 490.972 356.552 492.689ZM356.552 526.689C354.206 530.208 353.972 531.547 354.552 535.689C357.185 539.066 358.675 540.527 362.935 541.318C364.872 541.319 364.872 541.319 366.849 541.321C367.923 541.331 367.923 541.331 369.019 541.342C371.375 541.359 373.73 541.34 376.087 541.318C377.729 541.319 379.372 541.322 381.014 541.326C384.451 541.329 387.888 541.314 391.325 541.286C395.73 541.252 400.133 541.258 404.537 541.277C407.927 541.288 411.316 541.279 414.705 541.264C416.329 541.258 417.953 541.259 419.577 541.265C421.847 541.271 424.115 541.25 426.384 541.223C428.32 541.214 428.32 541.214 430.295 541.204C434.104 540.602 435.265 539.735 437.552 536.689C438.716 533.786 438.716 533.786 438.552 530.689C436.451 527.314 435.35 525.955 431.552 524.689C429.324 524.59 427.094 524.551 424.865 524.544C423.852 524.539 423.852 524.539 422.819 524.534C420.586 524.525 418.354 524.523 416.122 524.522C414.569 524.518 413.016 524.515 411.463 524.511C408.206 524.505 404.949 524.504 401.693 524.504C397.524 524.504 393.356 524.491 389.188 524.473C385.979 524.462 382.771 524.46 379.562 524.461C378.025 524.46 376.489 524.455 374.952 524.447C372.801 524.438 370.649 524.441 368.497 524.447C367.274 524.445 366.051 524.444 364.79 524.442C361.563 524.689 359.396 525.168 356.552 526.689ZM98.5517 558.689C98.5517 563.969 98.5517 569.249 98.5517 574.689C233.192 574.689 367.832 574.689 506.552 574.689C506.552 569.409 506.552 564.129 506.552 558.689C371.912 558.689 237.272 558.689 98.5517 558.689Z" fill="black"/>
<path d="M259.552 310.689C265.492 310.689 271.432 310.689 277.552 310.689C277.552 327.849 277.552 345.009 277.552 362.689C271.612 362.689 265.672 362.689 259.552 362.689C259.552 345.529 259.552 328.369 259.552 310.689Z" fill="black"/>
<path d="M114.552 182.689C120.492 182.689 126.432 182.689 132.552 182.689C132.552 199.849 132.552 217.009 132.552 234.689C126.612 234.689 120.672 234.689 114.552 234.689C114.552 217.529 114.552 200.369 114.552 182.689Z" fill="black"/>
<path d="M114.552 148.689C120.492 148.689 126.432 148.689 132.552 148.689C132.552 154.629 132.552 160.569 132.552 166.689C126.612 166.689 120.672 166.689 114.552 166.689C114.552 160.749 114.552 154.809 114.552 148.689Z" fill="black"/>
</svg>
